<svg width="536" height="108" viewBox="0 0 536 108" fill="none" xmlns="http://www.w3.org/2000/svg">
<path d="M219.963 87.7858C219.354 87.7882 218.75 87.6718 218.187 87.4435C217.623 87.2151 217.111 86.8792 216.679 86.4551C216.248 86.0309 215.905 85.5269 215.671 84.9718C215.438 84.4168 215.317 83.8217 215.317 83.2206V56.0471C215.317 48.6196 211.021 44.1813 203.805 44.1813C202.126 44.0762 200.444 44.3236 198.869 44.907C197.294 45.4904 195.863 46.3966 194.669 47.5658C193.475 48.735 192.546 50.1407 191.943 51.6901C191.341 53.2394 191.078 54.8973 191.172 56.5543V87.7858H185.168C183.941 87.7858 182.764 87.3048 181.896 86.4487C181.028 85.5925 180.541 84.4314 180.541 83.2206V35.0147H186.299C188.99 35.0147 191.172 37.1965 191.172 39.8879V39.8879C193.086 38.0184 195.365 36.5531 197.872 35.5814C200.378 34.6097 203.059 34.1518 205.751 34.2358C218.053 34.2358 225.949 42.1886 225.949 54.5254V87.7858H219.963Z" fill="black"/>
<path d="M280.06 41.2099C277.814 38.7191 275.042 36.744 271.94 35.4232C268.838 34.1025 265.48 33.4682 262.102 33.565C258.508 33.4612 254.932 34.1025 251.604 35.4474C248.277 36.7924 245.273 38.811 242.786 41.3729C240.241 44.0842 238.264 47.2636 236.966 50.7295C235.667 54.1954 235.075 57.8798 235.221 61.5719V61.9886C235.221 70.2674 237.736 77.0065 242.712 82.0064C245.305 84.5104 248.387 86.4669 251.771 87.7563C255.155 89.0458 258.771 89.6413 262.396 89.5063C268.745 89.5531 274.98 87.8395 280.39 84.5607C281.06 84.144 281.612 83.5665 281.994 82.8822C282.376 82.1978 282.576 81.4291 282.575 80.6477V71.5899C277.107 76.6592 269.881 79.4722 262.378 79.4521C253.197 79.4521 246.972 73.7638 245.999 64.4885H286.725L286.872 63.0393C286.982 61.9705 286.982 60.8292 286.982 59.7241C287.161 52.9061 284.683 46.2799 280.06 41.2099V41.2099ZM246.642 54.9053C247.299 51.9939 248.929 49.3847 251.269 47.496C254.266 44.9244 258.131 43.5541 262.102 43.6555C263.906 43.6091 265.701 43.9257 267.378 44.586C269.054 45.2462 270.576 46.2364 271.852 47.496C274.005 49.4229 275.391 52.0432 275.763 54.8872L246.642 54.9053Z" fill="black"/>
<path d="M318.674 89.0538C304.848 89.0538 296.255 80.6119 296.255 67.0251V34.9241H302.277C302.886 34.9241 303.49 35.0428 304.052 35.2733C304.615 35.5039 305.126 35.8418 305.556 36.2676C305.985 36.6934 306.326 37.1988 306.557 37.7548C306.789 38.3107 306.907 38.9063 306.904 39.5074V66.3367C306.904 74.5069 311.201 79.0177 318.968 79.0177C326.735 79.0177 331.142 74.4707 331.142 66.228V34.9241H337.164C338.396 34.9241 339.578 35.407 340.449 36.2665C341.32 37.126 341.81 38.2918 341.81 39.5074V66.3367C341.81 80.1047 332.721 89.0538 318.674 89.0538Z" fill="black"/>
<path d="M363.788 82.0015C363.788 85.1959 361.199 87.7854 358.004 87.7854V87.7854C356.463 87.7854 353.377 87.7459 353.377 87.7459C353.378 76.467 353.377 65.188 353.377 53.909C353.377 51.1955 353.919 48.5085 354.972 46.0017C356.026 43.4949 357.569 41.2175 359.515 39.2995C361.46 37.3816 363.77 35.8608 366.312 34.824C368.854 33.7872 371.577 33.2548 374.328 33.2571H381.672V43.5287H374.328C371.536 43.5287 368.858 44.6218 366.882 46.568C364.906 48.5141 363.793 51.1543 363.788 53.909V82.0015Z" fill="black"/>
<path d="M415.312 33.3474C409.702 33.3689 404.224 35.0297 399.571 38.1202C394.917 41.2107 391.296 45.5922 389.164 50.7117C387.032 55.8311 386.486 61.4589 387.594 66.8845C388.701 72.3101 391.414 77.2903 395.388 81.1963C399.362 85.1022 404.421 87.7589 409.924 88.8307C415.428 89.9026 421.13 89.3417 426.31 87.2187C431.491 85.0958 435.918 81.5061 439.032 76.9028C442.146 72.2994 443.809 66.8889 443.809 61.3543C443.801 57.6693 443.059 54.0217 441.623 50.6199C440.187 47.2181 438.085 44.1286 435.439 41.5279C432.793 38.9273 429.654 36.8663 426.2 35.4627C422.747 34.059 419.047 33.3403 415.312 33.3474V33.3474ZM415.312 79.307C411.72 79.2748 408.218 78.1946 405.248 76.2025C402.277 74.2104 399.971 71.3954 398.619 68.1123C397.267 64.8292 396.93 61.2247 397.651 57.7531C398.371 54.2814 400.117 51.0978 402.668 48.6034C405.22 46.1089 408.462 44.4152 411.987 43.7356C415.512 43.056 419.163 43.4209 422.478 44.7844C425.793 46.1478 428.625 48.4488 430.618 51.3975C432.61 54.3462 433.673 57.8106 433.673 61.3543C433.671 63.725 433.193 66.0718 432.267 68.2595C431.342 70.4472 429.987 72.4326 428.28 74.1014C426.573 75.7701 424.549 77.0892 422.323 77.9826C420.097 78.876 417.714 79.3261 415.312 79.307V79.307Z" fill="black"/>
<path fill-rule="evenodd" clip-rule="evenodd" d="M477.592 20.9129V84.6258C477.592 85.2269 477.712 85.822 477.946 86.377C478.18 86.9321 478.522 87.4362 478.954 87.8603C479.385 88.2845 479.898 88.6203 480.461 88.8487C481.025 89.0771 481.628 89.1934 482.237 89.191H500.379C511.304 89.191 520.081 86.1113 526.434 79.8614C532.787 73.6115 536 65.3688 536 55.0972C536 44.8256 532.677 36.583 526.342 30.3331C520.007 24.0831 511.304 20.9129 500.287 20.9129H477.592ZM525.332 55.0972C525.332 70.3144 516.115 79.0281 500.067 79.0281H488.26V31.0758H499.975C516.151 31.0758 525.332 39.88 525.332 55.0972ZM455.466 20.9129V84.6259C455.466 85.8366 455.954 86.9978 456.822 87.8539C457.689 88.71 458.866 89.191 460.093 89.191H466.134V25.4781C466.134 24.877 466.014 24.2819 465.78 23.7269C465.547 23.1718 465.204 22.6678 464.773 22.2436C464.341 21.8195 463.829 21.4836 463.265 21.2552C462.702 21.0269 462.098 20.9105 461.489 20.9129H455.466Z" fill="url(#paint0_linear_1_92)"/>
<g clip-path="url(#clip0_1_92)">
<path d="M10.3689 54.0735C16.0954 54.0735 20.7377 49.4983 20.7377 43.8544C20.7377 38.2105 16.0954 33.6353 10.3689 33.6353C4.6423 33.6353 0 38.2105 0 43.8544C0 49.4983 4.6423 54.0735 10.3689 54.0735Z" fill="black"/>
<path d="M127.875 82.6285C131.939 82.6285 135.233 79.3815 135.233 75.3762C135.233 71.3709 131.939 68.1239 127.875 68.1239C123.811 68.1239 120.516 71.3709 120.516 75.3762C120.516 79.3815 123.811 82.6285 127.875 82.6285Z" fill="#67DD72"/>
<path d="M137.517 54.0735C143.244 54.0735 147.886 49.4983 147.886 43.8544C147.886 38.2105 143.244 33.6353 137.517 33.6353C131.791 33.6353 127.148 38.2105 127.148 43.8544C127.148 49.4983 131.791 54.0735 137.517 54.0735Z" fill="black"/>
<path d="M80.9555 38.0121C85.0196 38.0121 88.3141 34.7652 88.3141 30.7598C88.3141 26.7545 85.0196 23.5076 80.9555 23.5076C76.8915 23.5076 73.597 26.7545 73.597 30.7598C73.597 34.7652 76.8915 38.0121 80.9555 38.0121Z" fill="black"/>
<path d="M123.619 12.5719C123.619 5.45598 117.621 -0.284472 110.332 -0.000291097C104.092 0.249788 98.8214 5.10359 98.1755 11.2192C97.841 14.3792 98.706 17.3347 100.367 19.6877C102.639 22.916 103.17 27.0196 102.097 30.8049L88.6947 78.0357C87.8528 80.9912 83.7813 81.4231 82.3396 78.7063L60.9445 38.7619C58.8453 34.8289 58.4993 30.2138 60.0102 26.0306C60.6907 24.1437 60.9214 22.0407 60.5754 19.8469C59.7103 14.3338 55.0507 9.95739 49.4222 9.34357C41.7292 8.51376 35.2126 14.4247 35.2126 21.8361C35.2126 24.4392 36.02 26.8491 37.3809 28.8497C39.7108 32.2485 40.1952 36.5567 39.0764 40.5011L33.9323 58.6091C32.9635 62.0193 30.576 64.7701 27.485 66.5775C24.3939 68.3849 22.537 71.4086 22.4101 75.0006C22.214 80.5706 26.816 85.413 32.4676 85.5721C38.1191 85.7313 43.1363 81.1048 43.1363 75.3644C43.1363 73.6366 42.698 72.0111 41.9368 70.5902C40.2413 67.4414 39.6416 63.8494 40.6104 60.4165L46.5964 39.3303C47.4499 36.3293 51.579 35.8974 53.0438 38.6483L75.0733 79.7862C76.9072 83.1964 76.9187 87.1977 75.477 90.7897C74.6697 92.7903 74.3813 95.041 74.7504 97.3941C75.5462 102.464 80.7364 107.329 85.9036 107.897C93.5966 108.739 100.113 102.816 100.113 95.4048C100.113 92.8017 99.3058 90.3919 97.9448 88.3912C95.615 84.9924 95.1306 80.6842 96.2494 76.7398L108.764 32.6464C109.848 28.827 112.547 25.6442 116.191 23.9845C120.574 21.9953 123.631 17.6303 123.631 12.5491L123.619 12.5719Z" fill="black"/>
</g>
<defs>
<linearGradient id="paint0_linear_1_92" x1="455.466" y1="20.9129" x2="544.36" y2="34.5014" gradientUnits="userSpaceOnUse">
<stop stop-color="#4E9385"/>
<stop offset="1" stop-color="#67DD72"/>
</linearGradient>
<clipPath id="clip0_1_92">
<rect width="147.875" height="108" fill="white"/>
</clipPath>
</defs>
</svg>
